<svg xmlns="http://www.w3.org/2000/svg" viewBox="0 0 512 512">
  <defs>
    <linearGradient id="bg" x1="0%" y1="0%" x2="100%" y2="100%">
      <stop offset="0%" stop-color="#a01818"/>
      <stop offset="100%" stop-color="#6e1010"/>
    </linearGradient>
    <linearGradient id="border" x1="0%" y1="0%" x2="100%" y2="100%">
      <stop offset="0%" stop-color="#f5d989"/>
      <stop offset="50%" stop-color="#d4b675"/>
      <stop offset="100%" stop-color="#8e7340"/>
    </linearGradient>
  </defs>
  <rect x="0" y="0" width="512" height="512" rx="112" fill="url(#bg)"/>
  <rect x="8" y="8" width="496" height="496" rx="104" fill="none" stroke="url(#border)" stroke-width="16"/>
  <g transform="translate(256, 256)" fill="#ffffff">
    <path d="M 0,-130
             C -26,-83  -78,-47  -110,-5
             C -135,31  -135,73  -99,94
             C -73,109  -42,99  -21,73
             C -26,99  -36,120  -57,135
             L 57,135
             C 36,120  26,99  21,73
             C 42,99  73,109  99,94
             C 135,73  135,31  110,-5
             C 78,-47  26,-83  0,-130 Z"/>
  </g>
</svg>